<?xml version="1.0" standalone="no"?>
<!DOCTYPE svg PUBLIC "-//W3C//DTD SVG 20010904//EN"
 "http://www.w3.org/TR/2001/REC-SVG-20010904/DTD/svg10.dtd">
<svg version="1.0" xmlns="http://www.w3.org/2000/svg"
 width="600.000000pt" height="600.000000pt" viewBox="0 0 600.000000 600.000000"
 preserveAspectRatio="xMidYMid meet">
<metadata>
Created by potrace 1.14, written by Peter Selinger 2001-2017
</metadata>
<g transform="translate(0.000000,600.000000) scale(0.100000,-0.100000)"
fill="#000000" stroke="none">
<path d="M1360 5984 c-90 -37 -122 -173 -60 -256 18 -24 21 -38 16 -67 -4 -20
-11 -61 -16 -91 -6 -30 -12 -66 -15 -80 -10 -49 -34 -193 -50 -305 -4 -22 -8
-51 -10 -65 -14 -87 -25 -161 -30 -200 -3 -25 -8 -58 -12 -75 -3 -16 -7 -43
-9 -60 -1 -16 -7 -61 -14 -100 -6 -38 -13 -83 -15 -100 -2 -16 -6 -43 -9 -60
-3 -16 -8 -50 -10 -75 -3 -25 -8 -56 -10 -70 -3 -14 -8 -45 -11 -70 -3 -25 -7
-56 -10 -70 -2 -14 -7 -45 -10 -70 -7 -55 -24 -165 -31 -205 -3 -16 -7 -43 -8
-60 -7 -57 -19 -150 -23 -170 -2 -11 -6 -40 -8 -65 -16 -145 -18 -155 -36
-145 -5 4 -9 -4 -10 -17 0 -13 -2 -30 -4 -38 -2 -8 -6 -24 -8 -35 -18 -78 -43
-141 -66 -168 -28 -31 -42 -68 -47 -117 -1 -14 -5 -47 -8 -75 -3 -27 -8 -77
-11 -110 -9 -103 -14 -149 -19 -185 -3 -19 -8 -55 -11 -80 -15 -118 -52 -309
-68 -350 -11 -28 -29 -115 -37 -185 -5 -38 -14 -90 -20 -115 -6 -25 -12 -54
-15 -65 -2 -11 -15 -75 -29 -142 -14 -66 -27 -134 -29 -149 -3 -25 -12 -31
-82 -56 -143 -50 -264 -157 -329 -292 -47 -98 -64 -172 -64 -278 0 -299 195
-538 483 -594 30 -6 136 -6 170 0 112 20 184 53 267 120 49 40 148 154 148
170 0 3 11 30 25 59 99 217 51 496 -115 667 -73 76 -190 150 -235 150 -19 0
-20 4 -11 100 6 68 33 225 60 345 9 39 18 81 20 95 3 14 5 27 6 30 0 3 12 -24
26 -60 29 -74 117 -254 170 -350 36 -65 92 -151 244 -375 45 -66 113 -173 152
-238 73 -122 73 -122 153 -132 22 -2 56 -7 75 -10 19 -4 49 -8 65 -10 17 -2
30 -4 30 -5 0 -1 9 -3 20 -5 73 -14 153 -28 170 -30 49 -8 195 -35 240 -45 28
-6 61 -13 75 -15 14 -2 72 -15 130 -30 58 -14 110 -27 117 -29 7 -1 16 -5 19
-9 4 -4 14 -7 22 -7 18 0 41 -11 282 -127 107 -53 231 -110 275 -128 121 -50
493 -172 550 -180 28 -4 59 -9 70 -11 47 -9 244 -5 285 6 43 12 93 36 210 102
72 40 149 88 163 102 27 26 71 56 81 56 7 0 12 -32 13 -93 4 -227 130 -430
327 -527 89 -44 156 -60 250 -60 424 1 700 480 504 875 -88 178 -246 294 -438
321 -55 8 -71 7 -145 -1 -94 -11 -187 -49 -260 -105 -53 -41 -134 -136 -160
-189 -29 -56 -32 -59 -72 -62 -39 -4 -43 -2 -43 18 0 12 6 35 13 50 11 25 117
133 237 242 38 34 99 64 153 75 7 2 19 6 27 9 8 4 26 9 40 12 14 2 52 11 85
20 33 8 94 16 136 17 71 3 82 0 148 -34 l72 -37 37 22 c20 11 39 24 42 28 13
17 75 40 96 36 14 -2 33 3 43 12 11 9 65 47 120 85 56 38 100 70 98 72 -1 1
-38 9 -82 19 -44 9 -88 18 -98 20 -10 2 -27 7 -37 10 -10 3 -33 8 -51 10 -19
3 -45 7 -59 11 -14 3 -38 8 -55 10 -41 5 -294 5 -323 0 -21 -5 -63 -32 -172
-114 -45 -35 -132 -78 -179 -89 -14 -3 -44 -13 -66 -23 -22 -10 -105 -45 -185
-79 -150 -63 -521 -246 -570 -281 -16 -11 -31 -20 -34 -20 -4 0 -23 -10 -44
-23 -31 -19 -45 -22 -82 -16 -25 4 -65 10 -90 14 -25 3 -56 8 -70 10 -31 5
-97 14 -141 20 -40 6 -74 12 -97 19 -9 3 -39 8 -66 11 -27 3 -52 8 -57 11 -5
2 -27 7 -49 9 -22 2 -45 7 -49 10 -5 2 -24 7 -42 9 -34 5 -99 18 -369 76 -80
18 -154 33 -165 36 -36 7 -120 24 -145 30 -35 7 -181 35 -205 38 -11 2 -36 6
-55 10 -46 8 -105 16 -160 22 -84 9 -125 14 -145 18 -11 3 -37 5 -57 5 -37 1
-39 3 -132 144 -93 142 -186 278 -196 287 -16 15 -150 221 -150 229 0 6 -3 11
-7 11 -5 0 -13 10 -19 23 -6 12 -38 74 -71 137 -33 63 -75 153 -93 200 -18 47
-36 94 -41 105 -26 64 -90 298 -104 380 -8 45 -8 136 1 199 7 54 11 107 19
246 7 143 15 255 20 294 3 17 7 65 10 106 4 41 8 82 10 90 2 8 7 44 10 80 4
36 13 110 21 165 8 55 17 119 20 141 3 23 7 53 9 65 3 13 8 48 11 78 3 30 8
64 10 75 4 20 9 54 19 136 3 19 7 46 9 60 3 14 8 43 11 65 3 22 7 51 10 65 2
14 7 43 10 65 3 22 7 51 10 65 2 14 9 59 14 100 6 41 15 104 21 140 5 36 12
83 15 105 3 22 8 51 10 65 3 14 7 40 10 58 3 17 7 47 10 65 15 92 67 362 71
369 3 5 10 6 15 2 21 -12 97 45 119 90 70 145 -64 291 -210 230z m-550 -4446
c244 -60 400 -321 343 -573 -69 -303 -383 -460 -659 -329 -203 96 -314 354
-249 577 13 43 49 117 57 117 4 0 8 6 8 13 0 23 110 124 168 155 100 53 220
68 332 40z m4440 -463 c172 -38 311 -184 357 -375 9 -36 9 -148 0 -185 -5 -22
-10 -47 -12 -57 -10 -48 -67 -140 -120 -194 -98 -100 -214 -146 -347 -139 -96
5 -112 9 -183 45 -196 97 -302 315 -259 529 26 128 109 249 217 318 92 58 236
83 347 58z"/>
<path d="M714 1279 c-3 -5 0 -16 6 -24 16 -19 19 -86 6 -104 -6 -8 -9 -15 -8
-15 2 -1 -2 -13 -8 -28 -12 -26 -69 -61 -100 -61 -46 0 -61 6 -94 38 -21 19
-38 35 -40 35 -1 0 -3 -10 -5 -22 -13 -93 16 -177 81 -232 81 -70 204 -64 292
13 34 29 66 112 66 171 0 62 -32 141 -71 177 -33 29 -117 65 -125 52z"/>
<path d="M5165 802 c55 -136 -74 -265 -190 -189 -19 12 -35 29 -35 37 -1 27
-17 -11 -23 -53 -5 -39 19 -122 45 -155 109 -140 309 -116 380 44 23 54 25
135 4 185 -30 71 -98 132 -160 143 -23 4 -27 2 -21 -12z"/>
</g>
</svg>
